<?xml version="1.0" encoding="UTF-8"?>
<!DOCTYPE svg PUBLIC "-//W3C//DTD SVG 1.1//EN" "http://www.w3.org/Graphics/SVG/1.1/DTD/svg11.dtd">
<svg xmlns="http://www.w3.org/2000/svg" version="1.1" width="180px" height="180px" style="shape-rendering:geometricPrecision; text-rendering:geometricPrecision; image-rendering:optimizeQuality; fill-rule:evenodd; clip-rule:evenodd" xmlns:xlink="http://www.w3.org/1999/xlink">
<g><path style="opacity:1" fill="#fffefe" d="M -0.5,-0.5 C 59.5,-0.5 119.5,-0.5 179.5,-0.5C 179.5,59.5 179.5,119.5 179.5,179.5C 119.5,179.5 59.5,179.5 -0.5,179.5C -0.5,119.5 -0.5,59.5 -0.5,-0.5 Z"/></g>
<g><path style="opacity:1" fill="#f8a642" d="M 125.5,33.5 C 124.265,33.7214 123.265,34.3881 122.5,35.5C 122.167,34.8333 121.833,34.1667 121.5,33.5C 111.226,38.7313 100.893,44.0647 90.5,49.5C 89.8182,48.7573 89.1515,48.0906 88.5,47.5C 85.5995,47.2796 82.9329,47.9462 80.5,49.5C 81.5663,53.0096 82.5663,56.5096 83.5,60C 81.3763,61.5822 79.2096,61.7488 77,60.5C 76.5426,57.204 75.7093,54.0373 74.5,51C 72.1527,50.6664 69.8194,50.833 67.5,51.5C 68.2745,55.814 68.9412,60.1474 69.5,64.5C 65.1157,65.0101 60.7823,65.8434 56.5,67C 55.6669,69.0811 55.6669,71.2478 56.5,73.5C 48.7908,78.3388 40.7908,82.5055 32.5,86C 29.9754,88.5188 27.142,90.6855 24,92.5C 23.5172,93.448 23.3505,94.448 23.5,95.5C 21.202,68.9246 31.202,48.0912 53.5,33C 77.7267,18.852 101.727,19.0187 125.5,33.5 Z"/></g>
<g><path style="opacity:1" fill="#f7a23b" d="M 125.5,33.5 C 128.81,35.4821 131.81,37.8154 134.5,40.5C 134.062,40.4346 133.728,40.6012 133.5,41C 135.394,42.1011 136.061,43.4345 135.5,45C 137.301,45.3173 137.634,45.984 136.5,47C 127.5,51.5 118.5,56 109.5,60.5C 108.702,60.9569 108.369,61.6236 108.5,62.5C 103.086,58.966 97.0862,57.6327 90.5,58.5C 89.6745,54.8641 89.0078,51.1974 88.5,47.5C 89.1515,48.0906 89.8182,48.7573 90.5,49.5C 100.893,44.0647 111.226,38.7313 121.5,33.5C 121.833,34.1667 122.167,34.8333 122.5,35.5C 123.265,34.3881 124.265,33.7214 125.5,33.5 Z"/></g>
<g><path style="opacity:1" fill="#fffcfa" d="M 88.5,47.5 C 89.0078,51.1974 89.6745,54.8641 90.5,58.5C 97.0862,57.6327 103.086,58.966 108.5,62.5C 113.786,68.6686 113.786,74.8353 108.5,81C 115.786,81.7962 120.452,85.6295 122.5,92.5C 123.392,99.6634 121.059,105.497 115.5,110C 111.611,112.112 107.611,113.945 103.5,115.5C 104.627,119.135 105.627,122.802 106.5,126.5C 103.92,127.549 101.254,128.216 98.5,128.5C 98.2593,124.293 97.2593,120.293 95.5,116.5C 93.9291,117.309 92.2624,117.643 90.5,117.5C 91.4245,121.79 92.0912,126.124 92.5,130.5C 90.139,130.674 87.8056,131.007 85.5,131.5C 84.5145,127.557 83.8478,123.557 83.5,119.5C 78.218,120.756 72.8846,121.756 67.5,122.5C 67.5,120.167 67.5,117.833 67.5,115.5C 69.0897,113.179 71.4231,112.179 74.5,112.5C 74.6503,107.7 73.9836,103.033 72.5,98.5C 70.8277,90.8101 68.9944,83.1435 67,75.5C 63.8653,74.2006 60.6987,74.2006 57.5,75.5C 56.7025,75.0431 56.3691,74.3764 56.5,73.5C 55.6669,71.2478 55.6669,69.0811 56.5,67C 60.7823,65.8434 65.1157,65.0101 69.5,64.5C 68.9412,60.1474 68.2745,55.814 67.5,51.5C 69.8194,50.833 72.1527,50.6664 74.5,51C 75.7093,54.0373 76.5426,57.204 77,60.5C 79.2096,61.7488 81.3763,61.5822 83.5,60C 82.5663,56.5096 81.5663,53.0096 80.5,49.5C 82.9329,47.9462 85.5995,47.2796 88.5,47.5 Z"/></g>
<g><path style="opacity:1" fill="#f89d30" d="M 134.5,40.5 C 144.469,49.4262 151.135,60.4262 154.5,73.5C 153.837,75.0419 153.17,76.7086 152.5,78.5C 142.7,83.1476 133.2,88.1476 124,93.5C 123.617,92.944 123.117,92.6107 122.5,92.5C 120.452,85.6295 115.786,81.7962 108.5,81C 113.786,74.8353 113.786,68.6686 108.5,62.5C 108.369,61.6236 108.702,60.9569 109.5,60.5C 118.5,56 127.5,51.5 136.5,47C 137.634,45.984 137.301,45.3173 135.5,45C 136.061,43.4345 135.394,42.1011 133.5,41C 133.728,40.6012 134.062,40.4346 134.5,40.5 Z"/></g>
<g><path style="opacity:1" fill="#f8a038" d="M 85.5,68.5 C 88.9783,68.1842 92.3117,68.6842 95.5,70C 99.5,73.6667 99.5,77.3333 95.5,81C 91.6827,82.9946 87.6827,84.4946 83.5,85.5C 82.1667,80.8336 80.8334,76.167 79.5,71.5C 81.444,70.1993 83.444,69.1993 85.5,68.5 Z"/></g>
<g><path style="opacity:1" fill="#f8a036" d="M 56.5,73.5 C 56.3691,74.3764 56.7025,75.0431 57.5,75.5C 60.6987,74.2006 63.8653,74.2006 67,75.5C 68.9944,83.1435 70.8277,90.8101 72.5,98.5C 58.3308,105.656 44.3308,112.989 30.5,120.5C 25.9652,112.882 23.6319,104.548 23.5,95.5C 23.3505,94.448 23.5172,93.448 24,92.5C 27.142,90.6855 29.9754,88.5188 32.5,86C 40.7908,82.5055 48.7908,78.3388 56.5,73.5 Z"/></g>
<g><path style="opacity:1" fill="#f79b2d" d="M 91.5,90.5 C 95.9671,90.1326 100.3,90.6326 104.5,92C 108.923,98.5344 107.256,103.201 99.5,106C 95.8754,107.669 92.2088,108.169 88.5,107.5C 87.1667,102.833 85.8333,98.1667 84.5,93.5C 86.875,92.3395 89.2083,91.3395 91.5,90.5 Z"/></g>
<g><path style="opacity:1" fill="#f79724" d="M 154.5,73.5 C 160.112,105.433 149.445,130.266 122.5,148C 91.1353,163.157 63.4686,158.323 39.5,133.5C 48.4943,130.488 57.1609,126.488 65.5,121.5C 66.1687,119.369 66.8354,117.369 67.5,115.5C 67.5,117.833 67.5,120.167 67.5,122.5C 72.8846,121.756 78.218,120.756 83.5,119.5C 83.8478,123.557 84.5145,127.557 85.5,131.5C 87.8056,131.007 90.139,130.674 92.5,130.5C 92.0912,126.124 91.4245,121.79 90.5,117.5C 92.2624,117.643 93.9291,117.309 95.5,116.5C 97.2593,120.293 98.2593,124.293 98.5,128.5C 101.254,128.216 103.92,127.549 106.5,126.5C 105.627,122.802 104.627,119.135 103.5,115.5C 107.611,113.945 111.611,112.112 115.5,110C 121.059,105.497 123.392,99.6634 122.5,92.5C 123.117,92.6107 123.617,92.944 124,93.5C 133.2,88.1476 142.7,83.1476 152.5,78.5C 153.17,76.7086 153.837,75.0419 154.5,73.5 Z"/></g>
<g><path style="opacity:1" fill="#f89c2f" d="M 72.5,98.5 C 73.9836,103.033 74.6503,107.7 74.5,112.5C 71.4231,112.179 69.0897,113.179 67.5,115.5C 66.8354,117.369 66.1687,119.369 65.5,121.5C 57.1609,126.488 48.4943,130.488 39.5,133.5C 35.7629,129.698 32.7629,125.365 30.5,120.5C 44.3308,112.989 58.3308,105.656 72.5,98.5 Z"/></g>
</svg>
